#!OML:ASF H:\ManfredETheater\Project 1\Capture day 1\Session 1\subject.ASF
:FULLY-SPECIFIED
:DEGREES
241
root 0.724573 17.9733 -24.8799 -172.178 17.1255 -180.359
lowerback 7.80534 0.531653 -0.0388025
upperback -1.81752 0.889751 2.28451
thorax -6.32412 0.505093 2.29323
lowerneck -16.0342 2.86013 2.09705
upperneck 20.5215 5.56596 -6.67014
head 9.37419 2.24591 -1.89644
rclavicle -2.08724e-014 3.81667e-014
rhumerus -38.6748 -5.28802 -80.0754
rradius 55.6054
rwrist -0.721091
rhand -25.1244 -8.64364
rfingers 7.12502
rthumb 1.39145 -38.6188
lclavicle -2.08724e-014 3.81667e-014
lhumerus -39.3632 7.85409 82.2123
lradius 50.1665
lwrist -5.39198
lhand -14.2845 4.75294
lfingers 7.12502
lthumb 11.8548 34.3974
rfemur -10.5891 -1.22753 18.6358
rtibia 26.7001
rfoot -16.1438 -17.0214
rtoes -30.8485
lfemur -28.539 -6.29572 -16.237
ltibia 40.6418
lfoot -16.6532 -0.136769
ltoes 1.88218
242
root 0.726067 17.9662 -24.9293 -172.015 16.9087 -180.391
lowerback 7.81601 0.539079 -0.075655
upperback -1.82862 0.894578 2.26848
thorax -6.34243 0.508386 2.2966
lowerneck -16.0517 2.81235 2.03728
upperneck 20.4511 5.49986 -6.65241
head 9.34753 2.21156 -1.88878
rclavicle 3.07122e-014 2.3059e-014
rhumerus -38.5993 -4.83378 -80.638
rradius 55.6586
rwrist -0.620221
rhand -25.1008 -8.66246
rfingers 7.12502
rthumb 1.41419 -38.6375
lclavicle 3.07122e-014 2.3059e-014
lhumerus -39.3675 7.6981 82.2909
lradius 50.2381
lwrist -5.42348
lhand -14.2487 4.67457
lfingers 7.12502
lthumb 11.8893 34.317
rfemur -10.5724 -1.20234 18.6106
rtibia 26.7148
rfoot -16.233 -17.414
rtoes -30.961
lfemur -28.6853 -6.33063 -16.3121
ltibia 40.8386
lfoot -16.8826 -0.301497
ltoes 2.17876
243
root 0.727315 17.9582 -24.98 -171.849 16.6774 -180.421
lowerback 7.82953 0.542351 -0.110493
upperback -1.83877 0.894285 2.25468
thorax -6.36118 0.509171 2.30182
lowerneck -16.0785 2.76613 1.98393
upperneck 20.3802 5.43471 -6.63845
head 9.32279 2.17738 -1.88328
rclavicle 1.97791e-014 1.19271e-014
rhumerus -38.5324 -4.34456 -81.2061
rradius 55.7396
rwrist -0.557909
rhand -25.0752 -8.68796
rfingers 7.12502
rthumb 1.43893 -38.6628
lclavicle 1.97791e-014 1.19271e-014
lhumerus -39.3762 7.5466 82.3729
lradius 50.2831
lwrist -5.45642
lhand -14.2129 4.60102
lfingers 7.12502
lthumb 11.9239 34.2415
rfemur -10.5551 -1.18495 18.5883
rtibia 26.7373
rfoot -16.3299 -17.8167
rtoes -31.0672
lfemur -28.8364 -6.36318 -16.3874
ltibia 41.0521
lfoot -17.1344 -0.475511
ltoes 2.47611
244
root 0.728216 17.9495 -25.0321 -171.677 16.4355 -180.448
lowerback 7.84463 0.545078 -0.13931
upperback -1.85192 0.894167 2.2425
thorax -6.38395 0.509946 2.30532
lowerneck -16.0983 2.71937 1.93247
upperneck 20.3032 5.36811 -6.62555
head 9.29478 2.14281 -1.87869
rclavicle -1.97791e-014 3.33958e-014
rhumerus -38.4809 -3.83186 -81.7731
rradius 55.8458
rwrist -0.532228
rhand -25.058 -8.70697
rfingers 7.12502
rthumb 1.45554 -38.6817
lclavicle -1.97791e-014 3.33958e-014
lhumerus -39.3952 7.39235 82.4613
lradius 50.3023
lwrist -5.48841
lhand -14.1789 4.53195
lfingers 7.12502
lthumb 11.9566 34.1705
rfemur -10.5405 -1.17761 18.5687
rtibia 26.7668
rfoot -16.4366 -18.22
rtoes -31.1551
lfemur -28.9966 -6.3904 -16.4625
ltibia 41.2837
lfoot -17.4063 -0.657446
ltoes 2.78004
245
root 0.728694 17.9399 -25.086 -171.502 16.1806 -180.47
lowerback 7.85731 0.547275 -0.156577
upperback -1.86438 0.894701 2.23171
thorax -6.40447 0.510678 2.30368
lowerneck -16.1136 2.66902 1.88151
upperneck 20.2166 5.29594 -6.6153
head 9.26246 2.10556 -1.87582
rclavicle 1.94809e-014 -1.43125e-014
rhumerus -38.4446 -3.29955 -82.3355
rradius 55.9823
rwrist -0.540407
rhand -25.0425 -8.71381
rfingers 7.12502
rthumb 1.47056 -38.6885
lclavicle 1.94809e-014 -1.43125e-014
lhumerus -39.4199 7.23646 82.5576
lradius 50.2955
lwrist -5.52458
lhand -14.1387 4.47863
lfingers 7.12502
lthumb 11.9954 34.1149
rfemur -10.524 -1.18645 18.5531
rtibia 26.8004
rfoot -16.5542 -18.6194
rtoes -31.2285
lfemur -29.165 -6.4117 -16.5371
ltibia 41.5334
lfoot -17.6938 -0.84795
ltoes 3.06971
246
root 0.72881 17.9296 -25.1415 -171.32 15.9176 -180.486
lowerback 7.87358 0.549534 -0.165772
upperback -1.88221 0.896679 2.22399
thorax -6.43273 0.51204 2.30051
lowerneck -16.1187 2.6172 1.83148
upperneck 20.1239 5.22101 -6.60461
head 9.22608 2.06752 -1.87336
rclavicle -2.32578e-014 2.38542e-014
rhumerus -38.426 -2.75334 -82.8916
rradius 56.1395
rwrist -0.569237
rhand -25.0233 -8.69383
rfingers 7.12502
rthumb 1.4891 -38.6684
lclavicle -2.32578e-014 2.38542e-014
lhumerus -39.4595 7.0805 82.6595
lradius 50.2659
lwrist -5.56018
lhand -14.1064 4.42752
lfingers 7.12502
lthumb 12.0265 34.062
rfemur -10.5063 -1.20979 18.5435
rtibia 26.8347
rfoot -16.6793 -19.012
rtoes -31.2945
lfemur -29.3433 -6.42714 -16.6087
ltibia 41.7997
lfoot -17.992 -1.04174
ltoes 3.34168
